<svg id="Layer_1" data-name="Layer 1" xmlns="http://www.w3.org/2000/svg" viewBox="0 0 374.4 125.65"><defs><style>.cls-1{fill:#5f259f;}.cls-2{fill:#fff;}</style></defs><rect class="cls-1" x="-0.08" y="-0.26" width="374.49" height="125.91"/><path class="cls-2" d="M74.19,42H53.07a11,11,0,0,0-11,11V81.63a2,2,0,0,0,2,2h5.29a2,2,0,0,0,2-2V73.78a3.7,3.7,0,0,1,3.69-3.68H75.89V81.63a2,2,0,0,0,2,2h5.29a2,2,0,0,0,2-2V53A11,11,0,0,0,74.19,42Zm1.7,14.22v5.91H51.37v-6a5.9,5.9,0,0,1,5.9-5.89h12.6A6,6,0,0,1,75.89,56.24Z"/><path class="cls-2" d="M280.61,42.06h-5.29a2,2,0,0,0-2,2V69.45a6,6,0,0,1-6,6H254.82a6,6,0,0,1-6-6V44.06a2,2,0,0,0-2-2h-5.29a2,2,0,0,0-2,2V72.68a11,11,0,0,0,11,11h21.12a11,11,0,0,0,11-11V44.06A2,2,0,0,0,280.61,42.06Z"/><path class="cls-2" d="M122.51,42H102.79a8.17,8.17,0,0,0-8.15,8.13V81.63a2,2,0,0,0,2,2h5.19a2,2,0,0,0,1.41-.58,1.94,1.94,0,0,0,.58-1.42V71.15h19.24A14.15,14.15,0,0,0,137.19,57v-.33A14.7,14.7,0,0,0,122.51,42Zm5.36,13.37V57.8A5.17,5.17,0,0,1,122.7,63H104.88a1.07,1.07,0,0,1-1.06-1.06V53.4A3.18,3.18,0,0,1,107,50.22H122.7A5.17,5.17,0,0,1,127.87,55.39Z"/><path class="cls-2" d="M176.24,75.45H155.06V44a2,2,0,0,0-2-2h-5.29a2,2,0,0,0-2,2V80.29a3.35,3.35,0,0,0,3.34,3.34h25.57a2.07,2.07,0,0,0,1.92-1.32l1.57-4.06a2.06,2.06,0,0,0-1.93-2.8Z"/><path class="cls-2" d="M332.52,47.66V44a2.1,2.1,0,0,0-2-2H294a2.1,2.1,0,0,0-2,2v4.19a2.11,2.11,0,0,0,2,2h25.21L293.38,75.14A4,4,0,0,0,292,78v3.55a2.15,2.15,0,0,0,2,2.08h36.33a2.1,2.1,0,0,0,2-2V77.45a2.17,2.17,0,0,0-2-2h-25l25.4-24.69C331.6,49.75,332.52,48.59,332.52,47.66Z"/><path class="cls-2" d="M219.06,42H197.93a11,11,0,0,0-11,11V81.63a2,2,0,0,0,2,2h5.29a2,2,0,0,0,2-2V73.78a3.68,3.68,0,0,1,3.68-3.68h20.83V81.63a2,2,0,0,0,2,2H228a2,2,0,0,0,2-2V53A11,11,0,0,0,219.06,42Zm1.69,14.22v5.91H196.23v-6a5.9,5.9,0,0,1,5.9-5.9h12.6A6,6,0,0,1,220.75,56.24Z"/></svg>